<svg width="32" height="34" viewBox="0 0 32 34" fill="none" xmlns="http://www.w3.org/2000/svg">
<g clip-path="url(#clip0_15_294)">
<path d="M15.9951 0.352112C24.8293 0.352112 31.9901 7.80518 31.9901 17C31.9901 26.1949 24.8293 33.648 15.9951 33.648C7.16079 33.648 0 26.1949 0 17C0 7.80518 7.16079 0.352112 15.9951 0.352112ZM19.0871 7.63558H16.6879L16.6319 7.72298L14.3866 11.7684L12.0853 15.9158L9.79898 20.0487L7.49769 24.1961H10.2468L12.5491 20.0487L14.8494 15.9158L17.1367 11.7684L17.5166 11.1108L17.6835 11.7684L18.3853 14.4987L17.5996 15.9158L15.2993 20.0487L13.012 24.1961H15.7611L18.0624 20.0487L19.2551 17.9022L19.8169 20.0487L20.8826 24.1961H23.3518L22.2861 20.0487L21.2195 15.9158L20.9395 14.8493L22.651 11.7684H20.1538L20.0688 11.4615L19.1991 8.07363L19.0871 7.63558Z" fill="white"/>
</g>
<defs>
<clipPath id="clip0_15_294">
<rect width="31.9901" height="33.2959" fill="white" transform="translate(0 0.352051)"/>
</clipPath>
</defs>
</svg>
