<svg width="33" height="34" viewBox="0 0 33 34" fill="none" xmlns="http://www.w3.org/2000/svg">
<g clip-path="url(#clip0_15_285)">
<path d="M13.7177 10.65H20.1029C21.8662 10.65 23.2955 12.1377 23.2955 13.9729C23.2955 15.8082 21.8662 17.2959 20.1029 17.2959M13.7177 10.65V17.2959M13.7177 10.65H11.3232M13.7177 10.65V8.1578M20.1029 17.2959H13.7177M20.1029 17.2959C21.8662 17.2959 23.2955 18.7836 23.2955 20.6188C23.2955 22.4541 21.8662 23.9418 20.1029 23.9418H13.7177M13.7177 17.2959V23.9418M13.7177 23.9418H11.3232M13.7177 23.9418V26.434M18.5066 10.65V8.1578M18.5066 26.434V23.9418M31.2771 17.2959C31.2771 25.5544 24.8449 32.2491 16.9103 32.2491C8.97571 32.2491 2.54346 25.5544 2.54346 17.2959C2.54346 9.03744 8.97571 2.34265 16.9103 2.34265C24.8449 2.34265 31.2771 9.03744 31.2771 17.2959Z" stroke="#F7931A" stroke-width="3.25778" stroke-linecap="round" stroke-linejoin="round"/>
</g>
<defs>
<clipPath id="clip0_15_285">
<rect width="31.9901" height="33.2959" fill="white" transform="translate(0.915039 0.647888)"/>
</clipPath>
</defs>
</svg>
