<svg width="32" height="34" viewBox="0 0 32 34" fill="none" xmlns="http://www.w3.org/2000/svg">
<g clip-path="url(#clip0_15_330)">
<path d="M15.9941 33.648C24.8279 33.648 31.9892 26.1945 31.9892 17.0001C31.9892 7.8057 24.8279 0.352173 15.9941 0.352173C7.16026 0.352173 -0.000976562 7.8057 -0.000976562 17.0001C-0.000976562 26.1945 7.16026 33.648 15.9941 33.648Z" fill="#F3BA2F"/>
<path d="M12.1112 15.3395L15.994 11.2982L19.8788 15.3416L22.1381 12.99L15.994 6.59515L9.85188 12.988L12.1112 15.3395ZM5.99707 17.0001L8.25637 14.6486L10.5157 17.0001L8.25637 19.3516L5.99707 17.0001ZM12.1112 18.6607L15.994 22.702L19.8788 18.6587L22.1381 21.0091L15.994 27.4051L9.85188 21.0123L9.84888 21.0091L12.1112 18.6607ZM21.4723 17.0001L23.7316 14.6486L25.9909 17.0001L23.7316 19.3516L21.4723 17.0001ZM18.2853 16.998H18.2873V17.0001L15.994 19.387L13.7037 17.0043L13.6997 17.0001L13.7037 16.997L14.1046 16.5787L14.2995 16.3758L15.994 14.6132L18.2863 16.9991L18.2853 16.998Z" fill="white"/>
</g>
<defs>
<clipPath id="clip0_15_330">
<rect width="31.9901" height="33.2959" fill="white" transform="translate(0 0.352051)"/>
</clipPath>
</defs>
</svg>
