<svg width="33" height="34" viewBox="0 0 33 34" fill="none" xmlns="http://www.w3.org/2000/svg">
<g clip-path="url(#clip0_15_298)">
<path d="M16.7998 0.243652C25.634 0.243652 32.7948 7.69672 32.7948 16.8916C32.7948 26.0864 25.634 33.5395 16.7998 33.5395C7.96548 33.5395 0.804688 26.0864 0.804688 16.8916C0.804688 7.69672 7.96548 0.243652 16.7998 0.243652ZM9.26808 17.107C9.17523 17.1056 9.08302 17.1233 8.99676 17.1591C8.91049 17.1949 8.83186 17.248 8.76537 17.3155C8.69887 17.3829 8.64582 17.4634 8.60926 17.5523C8.5727 17.6411 8.55334 17.7366 8.5523 17.8332V21.218C8.5523 21.8246 8.8632 22.3875 9.37205 22.7059L16.5348 27.1686C16.6688 27.2518 16.8247 27.2965 16.9837 27.2965C17.095 27.2978 17.2054 27.2761 17.3086 27.2328C17.4118 27.1895 17.5057 27.1254 17.5851 27.0442C17.6644 26.963 17.7275 26.8662 17.7708 26.7596C17.8142 26.6529 17.8368 26.5383 17.8374 26.4225V22.916C17.8374 22.3979 17.5675 21.9203 17.1277 21.6602L9.62797 17.2058C9.51821 17.1411 9.39423 17.107 9.26808 17.107ZM12.697 11.7255C12.6041 11.724 12.5118 11.7416 12.4254 11.7773C12.339 11.8131 12.2603 11.8662 12.1937 11.9337C12.1271 12.0011 12.0739 12.0817 12.0373 12.1706C12.0007 12.2595 11.9813 12.3551 11.9802 12.4518V16.9124L18.5682 20.9256C19.0001 21.1888 19.263 21.6643 19.263 22.1742V26.127C19.2864 26.1206 19.3089 26.1112 19.33 26.0989L20.9715 25.1583C21.059 25.1089 21.1321 25.0359 21.1831 24.9469C21.2342 24.8579 21.2612 24.7563 21.2614 24.6526V17.5356C21.2601 17.2797 21.1939 17.0287 21.0694 16.808C20.9449 16.5872 20.7667 16.4047 20.5526 16.2787L13.0549 11.8244C12.9457 11.76 12.8225 11.7259 12.697 11.7255ZM16.3359 6.58547C16.1723 6.4886 15.9788 6.46179 15.7965 6.51073C15.6142 6.55967 15.4574 6.68051 15.3592 6.84768C15.297 6.95894 15.2639 7.08522 15.2632 7.21393V11.4446L21.9972 15.5577C22.426 15.8209 22.6899 16.2943 22.6899 16.8063V24.0429L24.2465 23.1866C24.3361 23.1374 24.4113 23.064 24.4643 22.9741C24.5172 22.8842 24.5459 22.7811 24.5474 22.6757V12.2801C24.5474 11.7619 24.2775 11.2812 23.8366 11.0211L16.3359 6.58547Z" fill="#00D395"/>
</g>
<defs>
<clipPath id="clip0_15_298">
<rect width="31.9901" height="33.2959" fill="white" transform="translate(0.804688 0.243591)"/>
</clipPath>
</defs>
</svg>
