<svg width="23" height="36" viewBox="0 0 23 36" fill="none" xmlns="http://www.w3.org/2000/svg">
<g clip-path="url(#clip0_15_287)">
<path fill-rule="evenodd" clip-rule="evenodd" d="M11.7125 4.49723L4.22609 15.2617L11.7125 19.448L19.199 15.2617L11.7125 4.49723ZM10.2621 1.29387C10.9763 0.267035 12.4487 0.267029 13.1629 1.29387L22.4131 14.5944C23.0462 15.5048 22.7631 16.7857 21.8109 17.3181L12.5607 22.4905C12.0313 22.7867 11.3939 22.7867 10.8643 22.4905L1.61409 17.3181C0.662023 16.7857 0.378804 15.5048 1.01192 14.5944L10.2621 1.29387Z" fill="#716B94"/>
<path fill-rule="evenodd" clip-rule="evenodd" d="M20.2256 20.4741C21.9541 19.5766 23.6353 21.7679 22.4069 23.317L13.0937 35.0607C12.3781 35.9632 11.0473 35.9632 10.3316 35.0607L1.01843 23.317C-0.21002 21.7679 1.47126 19.5766 3.19963 20.4741L11.7127 24.8943L20.2256 20.4741ZM17.6764 25.077L12.5129 27.9409C12.0091 28.2024 11.4163 28.2024 10.9125 27.9409L5.7489 25.077L11.7127 31.9313L17.6764 25.077Z" fill="#716B94"/>
</g>
<defs>
<clipPath id="clip0_15_287">
<rect width="22.2747" height="35.2545" fill="white" transform="translate(0.576172 0.505859)"/>
</clipPath>
</defs>
</svg>
