<svg width="32" height="34" viewBox="0 0 32 34" fill="none" xmlns="http://www.w3.org/2000/svg">
<g clip-path="url(#clip0_15_283)">
<path fill-rule="evenodd" clip-rule="evenodd" d="M3.13897 17C3.13897 9.61057 8.89435 3.62027 15.994 3.62027C23.0936 3.62027 28.849 9.61057 28.849 17C28.849 24.3894 23.0936 30.3797 15.994 30.3797C8.89435 30.3797 3.13897 24.3894 3.13897 17ZM15.994 0.472107C7.22385 0.472107 0.114258 7.87189 0.114258 17C0.114258 26.1281 7.22385 33.5279 15.994 33.5279C24.7641 33.5279 31.8737 26.1281 31.8737 17C31.8737 7.87189 24.7641 0.472107 15.994 0.472107ZM15.958 9.47103C16.1392 8.62239 15.6251 7.78155 14.8097 7.59296C13.9943 7.40438 13.1864 7.93946 13.0053 8.7881L11.5577 15.5682L9.46631 16.2937C8.67393 16.5687 8.24569 17.4601 8.50982 18.2847C8.77394 19.1096 9.63041 19.5552 10.4228 19.2804L10.7925 19.1521L9.98057 22.9549C9.88106 23.421 9.99017 23.9088 10.2772 24.2812C10.5642 24.6536 10.9982 24.8704 11.4569 24.8704H20.531C21.3663 24.8704 22.0434 24.1657 22.0434 23.2963C22.0434 22.4269 21.3663 21.7222 20.531 21.7222H13.3422L14.1389 17.991L17.2284 16.9192C18.0208 16.6442 18.449 15.7528 18.1849 14.9282C17.9207 14.1034 17.0643 13.6577 16.2719 13.9326L14.904 14.4072L15.958 9.47103Z" fill="#345D9D"/>
</g>
<defs>
<clipPath id="clip0_15_283">
<rect width="31.9901" height="33.2959" fill="white" transform="translate(0 0.352051)"/>
</clipPath>
</defs>
</svg>
