<svg width="32" height="34" viewBox="0 0 32 34" fill="none" xmlns="http://www.w3.org/2000/svg">
<g clip-path="url(#clip0_15_320)">
<path d="M15.9951 33.6479C24.8289 33.6479 31.9901 26.1944 31.9901 17C31.9901 7.80558 24.8289 0.352051 15.9951 0.352051C7.16124 0.352051 0 7.80558 0 17C0 26.1944 7.16124 33.6479 15.9951 33.6479Z" fill="#6F41D8"/>
<path d="M21.0855 13.5591C20.7166 13.3353 20.2377 13.3353 19.8318 13.5591L16.9537 15.28L14.9993 16.4017L12.1212 18.1216C11.7523 18.3464 11.2735 18.3464 10.8676 18.1216L8.58031 16.7752C8.21142 16.5515 7.9535 16.1405 7.9535 15.691V13.0357C7.9535 12.5872 8.17443 12.1762 8.58031 11.9515L10.8296 10.6425C11.1995 10.4178 11.6794 10.4178 12.0852 10.6425L14.3345 11.9515C14.7044 12.1762 14.9623 12.5872 14.9623 13.0357V14.7567L16.9167 13.5965V11.8766C16.9189 11.6532 16.8614 11.4336 16.7508 11.2421C16.6401 11.0507 16.4806 10.895 16.2899 10.7924L12.1212 8.32432C11.7523 8.09957 11.2735 8.09957 10.8676 8.32432L6.62491 10.7924C6.43427 10.895 6.27473 11.0507 6.16406 11.2421C6.0534 11.4336 5.99595 11.6532 5.99811 11.8766V16.8501C5.99811 17.2996 6.21904 17.7106 6.62491 17.9354L10.8676 20.4034C11.2365 20.6271 11.7163 20.6271 12.1212 20.4034L14.9993 18.7199L16.9537 17.5608L19.8318 15.8783C20.2007 15.6536 20.6796 15.6536 21.0855 15.8783L23.3358 17.1873C23.7056 17.411 23.9626 17.822 23.9626 18.2715V20.9268C23.9626 21.3753 23.7426 21.7863 23.3358 22.011L21.0865 23.3574C20.7166 23.5822 20.2367 23.5822 19.8318 23.3574L17.5815 22.0485C17.2116 21.8237 16.9537 21.4127 16.9537 20.9643V19.2433L14.9993 20.4034V22.1234C14.9993 22.5718 15.2203 22.9839 15.6261 23.2076L19.8688 25.6756C20.2377 25.9004 20.7166 25.9004 21.1224 25.6756L25.3651 23.2076C25.734 22.9839 25.9919 22.5729 25.9919 22.1234V17.1498C25.9941 16.9264 25.9367 16.7068 25.826 16.5154C25.7153 16.3239 25.5558 16.1682 25.3651 16.0656L21.0865 13.5591H21.0855Z" fill="white"/>
</g>
<defs>
<clipPath id="clip0_15_320">
<rect width="31.9901" height="33.2959" fill="white" transform="translate(0 0.352051)"/>
</clipPath>
</defs>
</svg>
