<svg width="32" height="34" viewBox="0 0 32 34" fill="none" xmlns="http://www.w3.org/2000/svg">
<g clip-path="url(#clip0_15_326)">
<path d="M15.9948 0.352112C7.16253 0.352112 0 7.80661 0 16.9996C0 18.8372 0.286036 20.6046 0.814498 22.2581H5.59814V8.25116L15.9948 19.0723L26.3915 8.25116V22.2581H31.1752C31.7039 20.6046 31.9901 18.8372 31.9901 16.9996C31.9901 7.80661 24.8274 0.352112 15.9948 0.352112Z" fill="#FF6600"/>
<path d="M13.6042 21.5601L9.06681 16.8374V25.6511H7.33235H5.59789H2.32715C5.1349 30.4455 10.2061 33.6474 15.9945 33.6474C21.783 33.6474 26.8546 30.4455 29.6621 25.6511H26.391H23.2887H22.9225V16.8374L18.3851 21.5601L15.9945 24.0479L13.6044 21.5601H13.6042Z" fill="#4C4C4C"/>
</g>
<defs>
<clipPath id="clip0_15_326">
<rect width="31.9901" height="33.2959" fill="white" transform="translate(0 0.352051)"/>
</clipPath>
</defs>
</svg>
