<svg width="33" height="34" viewBox="0 0 33 34" fill="none" xmlns="http://www.w3.org/2000/svg">
<g clip-path="url(#clip0_15_300)">
<path fill-rule="evenodd" clip-rule="evenodd" d="M5.56362 1.10724C5.77246 0.781177 6.12405 0.585327 6.50057 0.585327H31.2745C31.6898 0.585327 32.0714 0.82323 32.2673 1.20433C32.4632 1.58544 32.4418 2.04786 32.2114 2.40752L27.7071 9.43983C27.4983 9.7659 27.1467 9.96175 26.7702 9.96175H1.99621C1.58091 9.96175 1.19932 9.72384 1.00336 9.34274C0.807398 8.96163 0.828884 8.49921 1.05926 8.13956L5.56362 1.10724ZM7.10323 2.92943L4.10033 7.61764H26.1675L29.1703 2.92943H7.10323Z" fill="#9945FF"/>
<path fill-rule="evenodd" clip-rule="evenodd" d="M5.56362 24.548C5.77246 24.2222 6.12405 24.0262 6.50057 24.0262H31.2745C31.6898 24.0262 32.0714 24.2642 32.2673 24.6453C32.4632 25.0265 32.4418 25.4887 32.2114 25.8486L27.7071 32.8809C27.4983 33.2067 27.1467 33.4027 26.7702 33.4027H1.99621C1.58091 33.4027 1.19932 33.1647 1.00336 32.7836C0.807398 32.4027 0.828884 31.9402 1.05926 31.5804L5.56362 24.548ZM7.10323 26.3703L4.10033 31.0586H26.1675L29.1703 26.3703H7.10323Z" fill="#9945FF"/>
<path fill-rule="evenodd" clip-rule="evenodd" d="M5.56362 21.1603C5.77246 21.4862 6.12405 21.6821 6.50057 21.6821H31.2745C31.6898 21.6821 32.0714 21.4442 32.2673 21.0631C32.4632 20.6819 32.4418 20.2197 32.2114 19.8598L27.7071 12.8275C27.4983 12.5017 27.1467 12.3057 26.7702 12.3057H1.99621C1.58091 12.3057 1.19932 12.5437 1.00336 12.9248C0.807398 13.306 0.828884 13.7682 1.05926 14.128L5.56362 21.1603ZM7.10323 19.338L4.10033 14.6498H26.1675L29.1703 19.338H7.10323Z" fill="#9945FF"/>
</g>
<defs>
<clipPath id="clip0_15_300">
<rect width="31.9901" height="33.2959" fill="white" transform="translate(0.640625 0.34613)"/>
</clipPath>
</defs>
</svg>
