<svg width="33" height="34" viewBox="0 0 33 34" fill="none" xmlns="http://www.w3.org/2000/svg">
<g clip-path="url(#clip0_15_306)">
<path d="M16.3281 33.2508C24.8675 33.2508 31.79 26.0457 31.79 17.1578C31.79 8.26984 24.8675 1.06476 16.3281 1.06476C7.78874 1.06476 0.866211 8.26984 0.866211 17.1578C0.866211 26.0457 7.78874 33.2508 16.3281 33.2508Z" fill="#1AD2A4"/>
<path d="M16.3285 19.3775C12.5643 19.3775 6.19824 18.7893 6.19824 16.6028C6.19824 14.4497 12.351 13.9725 14.2384 13.8837C14.569 13.8615 14.7823 14.1056 14.7929 14.4164C14.8036 14.7272 14.5797 14.9824 14.2917 14.9935C9.63185 15.2266 7.38188 16.1811 7.26458 16.6139C7.42453 17.18 10.6769 18.2676 16.3285 18.2676C21.98 18.2676 25.2324 17.18 25.3923 16.5917C25.275 16.1811 23.0464 15.2377 18.4291 14.9935C18.1306 14.9824 17.9066 14.7161 17.928 14.4164C17.9386 14.1167 18.1626 13.8615 18.4825 13.8948C20.3485 13.9947 26.4587 14.483 26.4587 16.6139C26.4587 18.7893 20.0926 19.3775 16.3285 19.3775Z" fill="white"/>
<path d="M23.2588 10.4986H9.39645C9.09788 10.4986 8.86328 10.2544 8.86328 9.94366C8.86328 9.6329 9.09788 9.38873 9.39645 9.38873H23.2588C23.5574 9.38873 23.792 9.6329 23.792 9.94366C23.792 10.2544 23.5574 10.4986 23.2588 10.4986Z" fill="white"/>
<path d="M16.3291 26.5917C16.0305 26.5917 15.7959 26.3476 15.7959 26.0368V18.8227C15.7959 18.5119 16.0305 18.2678 16.3291 18.2678C16.6276 18.2678 16.8622 18.5119 16.8622 18.8227V26.0368C16.8622 26.3476 16.6276 26.5917 16.3291 26.5917Z" fill="white"/>
<path d="M16.3291 17.1578C16.0305 17.1578 15.7959 16.9136 15.7959 16.6028V9.94366C15.7959 9.6329 16.0305 9.38873 16.3291 9.38873C16.6276 9.38873 16.8622 9.6329 16.8622 9.94366V16.6028C16.8622 16.9136 16.6276 17.1578 16.3291 17.1578Z" fill="white"/>
</g>
<defs>
<clipPath id="clip0_15_306">
<rect width="31.9901" height="33.2959" fill="white" transform="translate(0.333008 0.509827)"/>
</clipPath>
</defs>
</svg>
