<svg width="32" height="34" viewBox="0 0 32 34" fill="none" xmlns="http://www.w3.org/2000/svg">
<g clip-path="url(#clip0_15_296)">
<path d="M15.9951 0.352437C24.8293 0.352437 31.9901 7.8055 31.9901 17.0004C31.9901 26.1952 24.8293 33.6483 15.9951 33.6483C7.1608 33.6483 6.99997e-06 26.1952 6.99997e-06 17.0004C-0.00227856 14.4598 0.555161 11.9526 1.62947 9.67132C2.70379 7.39008 4.26637 5.39561 6.1971 3.84122L6.29007 3.95983L6.53999 4.27822C10.0829 8.79397 11.9143 11.1382 12.0343 11.3099C12.2342 11.5991 12.1593 11.8582 11.8154 12.0622C11.6244 12.1756 11.2305 12.29 11.0346 12.29C10.8117 12.29 10.5607 12.1787 10.3778 11.9987C10.3291 11.9443 10.2843 11.8862 10.2438 11.8249L10.1579 11.7011C9.88796 11.3016 9.37811 10.4941 8.52538 9.11861C7.9622 8.20047 7.39169 7.28723 6.81391 6.37898L6.80191 6.36858C6.79991 6.36858 6.80091 6.37274 6.80591 6.38523L6.8379 6.45182C6.94087 6.65784 7.30675 7.33832 8.43141 9.43388C9.47708 11.3817 9.83097 12.0695 9.83097 12.1621C9.83097 12.3493 9.78099 12.4471 9.55906 12.7052C9.18917 13.1349 9.02422 13.6177 8.90426 14.6166C8.7703 15.7372 8.39442 16.528 7.35074 17.8817C6.74093 18.6745 6.64096 18.8202 6.48601 19.1396C6.29207 19.5412 6.23908 19.767 6.21709 20.2748C6.1941 20.8117 6.23908 21.1592 6.39703 21.6722C6.53499 22.1217 6.67895 22.4193 7.04683 23.0123C7.36474 23.5253 7.54768 23.9061 7.54768 24.0549C7.54768 24.1735 7.56967 24.1735 8.06252 24.058C9.24116 23.7813 10.1979 23.2933 10.7367 22.696C11.0696 22.3267 11.1476 22.1227 11.1506 21.616C11.1516 21.2851 11.1406 21.2154 11.0546 21.025C10.9146 20.7149 10.6597 20.4569 10.0979 20.0573C9.36112 19.5329 9.04722 19.1105 8.96024 18.5309C8.88826 18.0554 8.97124 17.7193 9.37911 16.8308C9.79998 15.911 9.90495 15.5197 9.97593 14.5927C10.0209 13.9933 10.0839 13.7571 10.2498 13.5678C10.4218 13.3701 10.5777 13.3024 11.0046 13.2421C11.7004 13.1432 12.1433 12.956 12.5071 12.6074C12.8231 12.3036 12.955 12.0112 12.975 11.5721L12.991 11.2391L12.8141 11.0248L12.7941 10.9998C12.4622 10.6044 10.3678 8.19985 6.512 3.78711L6.41003 3.67162C9.1743 1.5119 12.5386 0.346872 15.9951 0.352437ZM16.0431 21.9115C15.5892 21.7908 14.7724 21.7575 14.2816 21.8407C13.143 22.0332 11.8943 22.6596 10.8896 23.5419L10.5907 23.8052L10.8537 23.8468C12.2242 24.0705 12.5931 24.2682 13.5448 25.2879C14.0917 25.8747 14.2766 26.0058 14.7305 26.1255C15.3973 26.3024 16.0551 25.9777 16.28 25.3587C16.381 25.0819 16.368 24.623 16.252 24.3931C15.9771 23.8458 15.1763 23.6689 14.7894 24.0705C14.4665 24.4035 14.5605 24.9071 14.9614 24.9945C15.0534 25.0142 15.0514 25.0101 14.9384 24.957C14.7625 24.8738 14.6865 24.7593 14.6855 24.5772C14.6835 24.1506 15.1533 23.9103 15.5902 24.1153C15.9101 24.2651 16.0381 24.4617 16.0381 24.8061C16.0392 24.9299 16.0149 25.0524 15.9666 25.1654C15.9183 25.2785 15.8473 25.3794 15.7583 25.4614C15.6692 25.5434 15.5643 25.6045 15.4507 25.6406C15.337 25.6768 15.2172 25.6871 15.0993 25.6708C14.8032 25.6216 14.5305 25.4733 14.3226 25.2484C13.8777 24.7239 14.0507 23.8978 14.6725 23.5804C15.1453 23.3391 15.7741 23.3984 16.262 23.7313C16.8218 24.1132 17.0607 24.4617 17.5436 25.6073C17.7005 25.9809 17.9035 26.4002 17.9935 26.5407C18.4493 27.2534 18.9971 27.602 19.6569 27.602C20.0208 27.602 20.2947 27.5333 20.6396 27.3543C20.8956 27.2211 21.2575 26.9693 21.2315 26.9412C21.1501 26.9564 21.0709 26.9819 20.9955 27.0172C20.2758 27.3096 19.543 27.2898 19.1181 26.9652C18.8502 26.7623 18.6343 26.3554 18.5233 25.8477C18.4713 25.5607 18.4243 25.2728 18.3823 24.9841C18.2344 24.0039 18.0924 23.5628 17.7615 23.0571C17.4216 22.5399 16.7718 22.105 16.0431 21.9115ZM20.8836 16.7558C20.8636 16.7558 20.8296 16.8193 20.8086 16.8963C20.6117 17.6215 20.6936 18.3977 21.0535 19.202L21.1185 19.3425C21.2844 19.689 21.5004 20.0459 22.1482 21.0562C22.779 22.0416 23.0919 22.6242 23.2448 23.1018C23.4948 23.8822 23.4578 24.5835 23.1269 25.3035C23.0479 25.4741 22.9959 25.6125 23.0099 25.6125C23.0239 25.6125 23.1529 25.5459 23.2978 25.4637C24.2815 24.9081 24.9723 23.955 25.2692 22.7418C25.3632 22.3568 25.4002 21.4381 25.3372 21.0562C25.2252 20.382 24.9933 19.8284 24.6174 19.3425C24.1895 18.7879 23.5597 18.302 22.4551 17.6756C21.5704 17.1741 21.2385 16.9785 21.0725 16.862C21.0149 16.8171 20.9512 16.7813 20.8836 16.7558ZM7.1498 20.229C7.1498 20.023 7.50469 19.9481 7.73262 20.1062C7.97455 20.2727 8.05152 20.6161 7.90657 20.8824C7.76861 21.1374 7.50369 21.2216 7.31675 21.0697C7.20179 20.975 7.19379 20.8356 7.29476 20.6775C7.39473 20.5214 7.38473 20.4454 7.25777 20.3778C7.18279 20.3372 7.1498 20.2914 7.1498 20.229ZM19.614 16.0982L19.6829 16.3136C19.7379 16.5091 19.7813 16.7078 19.8129 16.9088C20.0298 18.251 19.353 19.3363 18.0354 19.7566C17.8955 19.8014 17.3467 19.9127 16.8158 20.0053C15.7382 20.1926 15.2583 20.3237 14.7754 20.5661C14.4326 20.7378 14.0187 20.9948 14.0427 21.0208C14.1027 21.0175 14.1617 21.0027 14.2166 20.9771C14.8254 20.7545 15.5032 20.64 16.5319 20.5838C16.9408 20.562 17.4056 20.5266 17.5646 20.5058C18.4823 20.3851 19.1171 20.0958 19.612 19.5714C19.8869 19.2801 20.0508 19.0096 20.1818 18.6266C20.2668 18.3832 20.2778 18.2937 20.2788 17.8629C20.2788 17.4249 20.2688 17.3448 20.1788 17.0753C20.0588 16.7215 19.9189 16.4562 19.7419 16.2491L19.614 16.0982ZM18.0714 12.2151C18.0614 12.2151 18.0534 12.4149 18.0534 12.6594C18.0534 14.32 19.0071 15.3043 21.7123 16.4385C23.5148 17.1928 24.2515 17.583 24.8014 18.0741C25.2832 18.506 25.5711 19.0824 25.5981 19.6734C25.6031 19.7847 25.6231 19.8648 25.6431 19.8586C25.7171 19.8336 25.993 19.1896 26.084 18.8316C26.1989 18.379 26.2399 17.5206 26.1699 17.0628C25.926 15.4875 24.9043 14.3304 23.2528 13.7603C22.733 13.5813 22.1692 13.4585 21.1685 13.3056C19.468 13.0475 18.8532 12.8519 18.3044 12.3941C18.2309 12.3288 18.153 12.269 18.0714 12.2151ZM14.2686 13.5001C14.0667 13.393 13.6378 13.3503 13.4299 13.4169C13.103 13.5209 12.7861 13.882 12.6871 14.2597C12.6271 14.4896 12.6611 14.8944 12.7511 15.0193C12.896 15.2211 13.037 15.2742 13.4169 15.2711C14.1606 15.2659 14.8064 14.9339 14.8824 14.5188C14.9444 14.1785 14.6595 13.7082 14.2686 13.5001ZM13.2359 13.9725C13.2359 13.6073 13.7978 13.4106 14.1686 13.6479C14.3636 13.7717 14.4146 13.9548 14.2986 14.1244C14.2206 14.241 13.9757 14.3533 13.7968 14.3533C13.5288 14.3533 13.2359 14.1536 13.2359 13.9725ZM13.3779 6.39875C12.959 6.2947 12.3512 6.23956 12.0943 6.28014C11.9603 6.30095 11.9723 6.30719 12.2572 6.35297C13.2969 6.52153 14.1077 6.95021 14.9344 7.76804C15.2973 8.12701 15.6632 8.57339 16.254 9.38081C17.5856 11.1986 18.1504 11.7053 19.2711 12.0861C19.9289 12.3088 20.5937 12.4128 21.7673 12.4773C23.0669 12.5491 23.5567 12.6573 24.0216 12.9768C24.2785 13.1536 24.4795 13.3742 24.6794 13.6968L24.7964 13.8841L24.7714 13.6781C24.6784 12.8873 24.1356 11.7739 23.4438 10.9592L23.3178 10.8105L23.2538 11.1091C23.0939 11.8614 22.748 12.4014 22.4261 12.4024C22.3482 12.4018 22.2721 12.3785 22.2064 12.3351C22.1406 12.2917 22.0879 12.2299 22.0542 12.1569C21.9832 11.98 21.9892 11.9155 22.0942 11.7094C22.2891 11.3297 22.3371 10.8219 22.2411 10.1591C22.2142 9.96765 22.1732 9.78764 22.1512 9.76059C22.0812 9.67215 21.5194 9.33191 21.1635 9.16127C19.8709 8.53905 18.3244 8.33719 16.8048 8.59212L16.4449 8.65246L16.193 8.36009C15.2433 7.26028 14.3546 6.64119 13.3779 6.39875ZM22.774 6.69737C22.766 6.69737 22.713 6.80351 22.657 6.93253C22.5151 7.2582 22.4451 7.61509 22.4151 8.15615C22.3961 8.50471 22.3771 8.62437 22.3381 8.63894C22.2791 8.66287 22.2002 8.6379 21.7183 8.44541C21.3954 8.31534 20.5917 8.07083 20.5687 8.0958C20.5627 8.10204 20.7306 8.18736 20.9425 8.28517C21.1545 8.38298 21.4984 8.56818 21.7063 8.69721C22.5311 9.20497 22.671 9.50047 22.672 10.7324C22.672 11.3463 22.665 11.4264 22.592 11.6116C22.4941 11.8603 22.5121 11.9071 22.619 11.6876C22.819 11.2818 22.9029 10.8739 22.9149 10.2413C22.9219 9.83551 22.9339 9.74915 22.9889 9.69192C23.0489 9.62949 23.0639 9.62949 23.1609 9.68151C23.3058 9.75851 23.9606 10.3017 24.2465 10.5795L24.4795 10.8073L24.2465 10.4889C24.1186 10.3131 23.7647 9.90626 23.4598 9.58163C22.812 8.89178 22.76 8.80021 22.67 8.16135C22.6 7.65775 22.616 7.22491 22.72 6.90964C22.7472 6.84178 22.7654 6.77036 22.774 6.69737ZM11.9753 6.91588L11.9513 7.21034C11.8743 8.16135 12.2322 9.43388 12.8111 10.2632C13.2609 10.9062 13.9557 11.4056 14.4705 11.4545C14.8064 11.4857 14.9074 11.3765 14.7555 11.1455C14.5435 10.824 14.2836 10.3297 14.2156 10.1175C14.1355 9.83261 14.0665 9.54451 14.0087 9.25387C13.7678 8.08331 13.5298 7.62654 12.982 7.28005C12.7073 7.12453 12.4128 7.01033 12.1073 6.94085L11.9753 6.91588Z" fill="#FF007A"/>
</g>
<defs>
<clipPath id="clip0_15_296">
<rect width="31.9901" height="33.2959" fill="white" transform="translate(0 0.352051)"/>
</clipPath>
</defs>
</svg>
