<svg width="33" height="34" viewBox="0 0 33 34" fill="none" xmlns="http://www.w3.org/2000/svg">
<g clip-path="url(#clip0_15_334)">
<path d="M16.2139 33.306C24.7532 33.306 31.6758 26.1009 31.6758 17.213C31.6758 8.32508 24.7532 1.12 16.2139 1.12C7.67448 1.12 0.751953 8.32508 0.751953 17.213C0.751953 26.1009 7.67448 33.306 16.2139 33.306Z" fill="#42A5F5"/>
<path d="M17.5145 23.3172H14.9127C13.2812 23.3172 11.9482 21.9299 11.9482 20.2318V19.9877C11.9482 19.6769 12.1828 19.4327 12.4814 19.4327C12.78 19.4327 13.0146 19.6769 13.0146 19.9877V20.2318C13.0146 21.3195 13.8677 22.2074 14.9127 22.2074H17.5145C18.5595 22.2074 19.4126 21.3195 19.4126 20.2318C19.4126 19.355 18.8474 18.5781 18.037 18.334L14.1022 17.1686C12.8333 16.7802 11.9482 15.5593 11.9482 14.1942C11.9482 12.4961 13.2812 11.1088 14.9127 11.1088H17.5145C19.146 11.1088 20.4789 12.4961 20.4789 14.1942V14.4384C20.4789 14.7491 20.2444 14.9933 19.9458 14.9933C19.6472 14.9933 19.4126 14.7491 19.4126 14.4384V14.1942C19.4126 13.1065 18.5595 12.2186 17.5145 12.2186H14.9127C13.8677 12.2186 13.0146 13.1065 13.0146 14.1942C13.0146 15.071 13.5797 15.8479 14.3902 16.092L18.3249 17.2574C19.5939 17.6348 20.4789 18.8556 20.4789 20.2207C20.4789 21.9299 19.146 23.3172 17.5145 23.3172Z" fill="white"/>
<path d="M16.2148 25.537C15.9162 25.537 15.6816 25.2928 15.6816 24.9821V22.7623C15.6816 22.4516 15.9162 22.2074 16.2148 22.2074C16.5134 22.2074 16.748 22.4516 16.748 22.7623V24.9821C16.748 25.2928 16.5134 25.537 16.2148 25.537Z" fill="white"/>
<path d="M16.2148 12.2186C15.9162 12.2186 15.6816 11.9745 15.6816 11.6637V9.44397C15.6816 9.13321 15.9162 8.88904 16.2148 8.88904C16.5134 8.88904 16.748 9.13321 16.748 9.44397V11.6637C16.748 11.9745 16.5134 12.2186 16.2148 12.2186Z" fill="white"/>
<path d="M12.4819 28.7443C12.4179 28.7443 12.3646 28.7332 12.3006 28.711C7.63007 26.9907 4.48438 22.3626 4.48438 17.2128C4.48438 12.0631 7.63007 7.43495 12.3006 5.71467C12.5779 5.61478 12.8765 5.75906 12.9831 6.04763C13.0791 6.33619 12.9404 6.65805 12.6632 6.75794C8.4085 8.32284 5.55071 12.5292 5.55071 17.2128C5.55071 21.8965 8.4085 26.1028 12.6632 27.6677C12.9404 27.7676 13.0897 28.0895 12.9831 28.378C12.9084 28.6 12.7058 28.7443 12.4819 28.7443Z" fill="white"/>
<path d="M19.9459 28.7445C19.722 28.7445 19.5194 28.6002 19.4447 28.3782C19.3488 28.0896 19.4874 27.7678 19.7646 27.6679C24.0193 26.103 26.8771 21.8966 26.8771 17.213C26.8771 12.5294 24.0193 8.323 19.7646 6.7581C19.4874 6.65821 19.3381 6.33635 19.4447 6.04778C19.5407 5.75922 19.8499 5.60384 20.1272 5.71483C24.7978 7.43511 27.9434 12.0632 27.9434 17.213C27.9434 22.3628 24.7978 26.9909 20.1272 28.7112C20.0632 28.7334 20.0099 28.7445 19.9459 28.7445Z" fill="white"/>
</g>
<defs>
<clipPath id="clip0_15_334">
<rect width="31.9901" height="33.2959" fill="white" transform="translate(0.21875 0.565063)"/>
</clipPath>
</defs>
</svg>
