<svg width="33" height="34" viewBox="0 0 33 34" fill="none" xmlns="http://www.w3.org/2000/svg">
<g clip-path="url(#clip0_15_324)">
<path d="M16.1372 33.352C7.30288 33.352 0.14209 25.8989 0.14209 16.7041C0.14209 7.50922 7.30288 0.0561523 16.1372 0.0561523C24.9714 0.0561523 32.1322 7.50922 32.1322 16.7041C32.1322 25.8989 24.9714 33.352 16.1372 33.352ZM23.265 9.72444L20.8657 10.998L9.27128 17.1442C9.10608 15.8234 9.2967 14.4808 9.82187 13.2661C10.347 12.0515 11.1861 11.0126 12.2455 10.2654C13.3048 9.51811 14.5428 9.09187 15.8213 9.0342C17.0999 8.97654 18.3686 9.28971 19.4861 9.93878L20.8597 9.21043L21.0646 9.10118C19.7616 8.11696 18.2151 7.5414 16.6079 7.44245C15.0006 7.34351 13.3998 7.72531 11.9943 8.54278C10.5888 9.36024 9.43742 10.5792 8.6761 12.0558C7.91477 13.5324 7.5753 15.2049 7.69776 16.8758C7.72068 17.19 7.65374 17.5044 7.50538 17.7791C7.35702 18.0539 7.13386 18.2768 6.86402 18.4199L6.13924 18.8048V20.5987L8.27258 19.4666L8.96337 19.0993L9.64416 18.7382L21.8664 12.256L23.24 11.5287L26.0791 10.0231V8.23028L23.265 9.72444ZM26.0801 11.8179L10.3399 20.1585L8.96637 20.8869L6.14024 22.3883V24.1811L8.94738 22.6932L11.3476 21.4196L22.9541 15.264C23.1218 16.5869 22.9325 17.9322 22.4073 19.1494C21.8821 20.3666 21.0419 21.4077 19.9805 22.1561C18.9192 22.9045 17.6787 23.3306 16.3978 23.3869C15.117 23.4432 13.8464 23.1273 12.7282 22.4747L12.6432 22.5215L11.1537 23.3123C12.457 24.297 14.0039 24.8729 15.6116 24.972C17.2193 25.071 18.8206 24.689 20.2264 23.8711C21.6322 23.0531 22.7836 21.8335 23.5448 20.3563C24.3059 18.879 24.6448 17.2059 24.5216 15.5346C24.4989 15.2206 24.5658 14.9066 24.714 14.6321C24.8622 14.3576 25.0849 14.1347 25.3543 13.9915L26.0801 13.6065V11.819V11.8179Z" fill="white"/>
</g>
<defs>
<clipPath id="clip0_15_324">
<rect width="31.9901" height="33.2959" fill="white" transform="translate(0.14209 0.0561523)"/>
</clipPath>
</defs>
</svg>
