<svg width="32" height="34" viewBox="0 0 32 34" fill="none" xmlns="http://www.w3.org/2000/svg">
<g clip-path="url(#clip0_15_304)">
<path d="M15.9951 33.3028C7.16079 33.3028 0 25.8497 0 16.6548C0 7.45997 7.16079 0.00689697 15.9951 0.00689697C24.8293 0.00689697 31.9901 7.45997 31.9901 16.6548C31.9901 25.8497 24.8293 33.3028 15.9951 33.3028ZM23.0629 8.33086L18.4903 13.037C17.825 13.7205 16.9278 14.1037 15.9931 14.1037C15.0583 14.1037 14.1611 13.7205 13.4958 13.037L8.92725 8.33086H6.03314L12.0513 14.5291C13.1026 15.6072 14.5192 16.2115 15.9951 16.2115C17.4709 16.2115 18.8875 15.6072 19.9389 14.5291L25.953 8.33086H23.0629ZM8.89226 25.5646L13.4998 20.8168C14.1651 20.1333 15.0623 19.7501 15.9971 19.7501C16.9318 19.7501 17.829 20.1333 18.4943 20.8168L23.0979 25.5646H25.992L19.9389 19.3289C18.8875 18.2508 17.4709 17.6465 15.9951 17.6465C14.5192 17.6465 13.1026 18.2508 12.0513 19.3289L5.99815 25.5635L8.89226 25.5646Z" fill="white"/>
</g>
<defs>
<clipPath id="clip0_15_304">
<rect width="31.9901" height="33.2959" fill="white" transform="translate(0 0.00689697)"/>
</clipPath>
</defs>
</svg>
